<mxfile host="Electron" agent="Mozilla/5.0 (Windows NT 10.0; Win64; x64) AppleWebKit/537.36 (KHTML, like Gecko) draw.io/26.2.15 Chrome/134.0.6998.205 Electron/35.2.1 Safari/537.36" version="26.2.15">
  <diagram name="Page-1" id="ipt4Kt7Sx9uQrlR0ACr-">
    <mxGraphModel dx="786" dy="524" grid="1" gridSize="10" guides="1" tooltips="1" connect="1" arrows="1" fold="1" page="1" pageScale="1" pageWidth="850" pageHeight="1100" math="0" shadow="0">
      <root>
        <mxCell id="0" />
        <mxCell id="1" parent="0" />
        <mxCell id="BGMLpLw45mADriLmOVhz-32" style="edgeStyle=orthogonalEdgeStyle;rounded=0;orthogonalLoop=1;jettySize=auto;html=1;entryX=0.5;entryY=0;entryDx=0;entryDy=0;" edge="1" parent="1" source="IkpXYTgl3K8qra5wuV8V-1" target="BGMLpLw45mADriLmOVhz-26">
          <mxGeometry relative="1" as="geometry" />
        </mxCell>
        <mxCell id="IkpXYTgl3K8qra5wuV8V-1" value="Mulai" style="rounded=1;whiteSpace=wrap;html=1;" parent="1" vertex="1">
          <mxGeometry x="240" y="40" width="120" height="30" as="geometry" />
        </mxCell>
        <mxCell id="IkpXYTgl3K8qra5wuV8V-7" value="Selesai" style="rounded=1;whiteSpace=wrap;html=1;" parent="1" vertex="1">
          <mxGeometry x="240" y="390" width="120" height="30" as="geometry" />
        </mxCell>
        <mxCell id="BGMLpLw45mADriLmOVhz-53" style="edgeStyle=orthogonalEdgeStyle;rounded=0;orthogonalLoop=1;jettySize=auto;html=1;entryX=0.5;entryY=0;entryDx=0;entryDy=0;" edge="1" parent="1" source="BGMLpLw45mADriLmOVhz-26" target="BGMLpLw45mADriLmOVhz-28">
          <mxGeometry relative="1" as="geometry" />
        </mxCell>
        <mxCell id="BGMLpLw45mADriLmOVhz-26" value="T ←&amp;nbsp;[5, 4, 3, 2, 1]" style="rounded=0;whiteSpace=wrap;html=1;" vertex="1" parent="1">
          <mxGeometry x="240" y="100" width="120" height="30" as="geometry" />
        </mxCell>
        <mxCell id="BGMLpLw45mADriLmOVhz-52" value="" style="group" vertex="1" connectable="0" parent="1">
          <mxGeometry x="410" y="40" width="340" height="380" as="geometry" />
        </mxCell>
        <mxCell id="BGMLpLw45mADriLmOVhz-22" value="" style="rounded=0;whiteSpace=wrap;html=1;" vertex="1" parent="BGMLpLw45mADriLmOVhz-52">
          <mxGeometry width="340" height="380" as="geometry" />
        </mxCell>
        <mxCell id="IkpXYTgl3K8qra5wuV8V-29" value="Function printArray" style="text;html=1;align=center;verticalAlign=middle;resizable=0;points=[];autosize=1;strokeColor=none;fillColor=none;" parent="BGMLpLw45mADriLmOVhz-52" vertex="1">
          <mxGeometry width="120" height="30" as="geometry" />
        </mxCell>
        <mxCell id="BGMLpLw45mADriLmOVhz-41" style="edgeStyle=orthogonalEdgeStyle;rounded=0;orthogonalLoop=1;jettySize=auto;html=1;exitX=0.5;exitY=1;exitDx=0;exitDy=0;entryX=0.5;entryY=0;entryDx=0;entryDy=0;" edge="1" parent="BGMLpLw45mADriLmOVhz-52" source="IkpXYTgl3K8qra5wuV8V-12" target="BGMLpLw45mADriLmOVhz-37">
          <mxGeometry relative="1" as="geometry" />
        </mxCell>
        <mxCell id="IkpXYTgl3K8qra5wuV8V-12" value="printArray(T, N)" style="rounded=1;whiteSpace=wrap;html=1;" parent="BGMLpLw45mADriLmOVhz-52" vertex="1">
          <mxGeometry x="60.25" y="39.99761194029851" width="120" height="31.52238805970149" as="geometry" />
        </mxCell>
        <mxCell id="IkpXYTgl3K8qra5wuV8V-20" style="edgeStyle=orthogonalEdgeStyle;rounded=0;orthogonalLoop=1;jettySize=auto;html=1;exitX=0.5;exitY=1;exitDx=0;exitDy=0;entryX=0.5;entryY=0;entryDx=0;entryDy=0;" parent="BGMLpLw45mADriLmOVhz-52" source="IkpXYTgl3K8qra5wuV8V-15" target="BGMLpLw45mADriLmOVhz-43" edge="1">
          <mxGeometry relative="1" as="geometry">
            <mxPoint x="120" y="318" as="targetPoint" />
          </mxGeometry>
        </mxCell>
        <mxCell id="IkpXYTgl3K8qra5wuV8V-26" value="T" style="edgeLabel;html=1;align=center;verticalAlign=middle;resizable=0;points=[];" parent="IkpXYTgl3K8qra5wuV8V-20" vertex="1" connectable="0">
          <mxGeometry x="-0.209" y="-1" relative="1" as="geometry">
            <mxPoint x="11" y="3" as="offset" />
          </mxGeometry>
        </mxCell>
        <mxCell id="BGMLpLw45mADriLmOVhz-16" style="edgeStyle=orthogonalEdgeStyle;rounded=0;orthogonalLoop=1;jettySize=auto;html=1;entryX=0;entryY=0.5;entryDx=0;entryDy=0;" edge="1" parent="BGMLpLw45mADriLmOVhz-52" source="IkpXYTgl3K8qra5wuV8V-15" target="BGMLpLw45mADriLmOVhz-13">
          <mxGeometry relative="1" as="geometry" />
        </mxCell>
        <mxCell id="BGMLpLw45mADriLmOVhz-24" value="F" style="edgeLabel;html=1;align=center;verticalAlign=middle;resizable=0;points=[];" vertex="1" connectable="0" parent="BGMLpLw45mADriLmOVhz-16">
          <mxGeometry x="0.4581" relative="1" as="geometry">
            <mxPoint x="-13" y="-11" as="offset" />
          </mxGeometry>
        </mxCell>
        <mxCell id="IkpXYTgl3K8qra5wuV8V-15" value="&lt;span style=&quot;font-size: 10px;&quot;&gt;i &amp;lt; N&lt;/span&gt;" style="rhombus;whiteSpace=wrap;html=1;" parent="BGMLpLw45mADriLmOVhz-52" vertex="1">
          <mxGeometry x="95.25" y="240" width="50" height="47.37" as="geometry" />
        </mxCell>
        <mxCell id="BGMLpLw45mADriLmOVhz-20" style="edgeStyle=orthogonalEdgeStyle;rounded=0;orthogonalLoop=1;jettySize=auto;html=1;exitX=0.5;exitY=1;exitDx=0;exitDy=0;entryX=0.5;entryY=0;entryDx=0;entryDy=0;" edge="1" parent="BGMLpLw45mADriLmOVhz-52" source="BGMLpLw45mADriLmOVhz-1" target="IkpXYTgl3K8qra5wuV8V-15">
          <mxGeometry relative="1" as="geometry" />
        </mxCell>
        <mxCell id="BGMLpLw45mADriLmOVhz-1" value="&lt;div&gt;&lt;span style=&quot;background-color: transparent; color: light-dark(rgb(0, 0, 0), rgb(255, 255, 255));&quot;&gt;i&amp;nbsp;← 0&lt;/span&gt;&lt;/div&gt;" style="rounded=0;whiteSpace=wrap;html=1;" vertex="1" parent="BGMLpLw45mADriLmOVhz-52">
          <mxGeometry x="74" y="180" width="92.5" height="32" as="geometry" />
        </mxCell>
        <mxCell id="BGMLpLw45mADriLmOVhz-10" style="edgeStyle=orthogonalEdgeStyle;rounded=0;orthogonalLoop=1;jettySize=auto;html=1;entryX=0;entryY=0.5;entryDx=0;entryDy=0;" edge="1" parent="BGMLpLw45mADriLmOVhz-52" source="BGMLpLw45mADriLmOVhz-3" target="IkpXYTgl3K8qra5wuV8V-15">
          <mxGeometry relative="1" as="geometry" />
        </mxCell>
        <mxCell id="BGMLpLw45mADriLmOVhz-3" value="i&amp;nbsp;← i + 1" style="rounded=0;whiteSpace=wrap;html=1;" vertex="1" parent="BGMLpLw45mADriLmOVhz-52">
          <mxGeometry x="14" y="249.33999999999997" width="60" height="28.68" as="geometry" />
        </mxCell>
        <mxCell id="BGMLpLw45mADriLmOVhz-13" value="return" style="rounded=1;whiteSpace=wrap;html=1;" vertex="1" parent="BGMLpLw45mADriLmOVhz-52">
          <mxGeometry x="207.5" y="249.34000000000003" width="100" height="28" as="geometry" />
        </mxCell>
        <mxCell id="BGMLpLw45mADriLmOVhz-40" style="edgeStyle=orthogonalEdgeStyle;rounded=0;orthogonalLoop=1;jettySize=auto;html=1;entryX=0;entryY=0.5;entryDx=0;entryDy=0;" edge="1" parent="BGMLpLw45mADriLmOVhz-52" source="BGMLpLw45mADriLmOVhz-37" target="BGMLpLw45mADriLmOVhz-38">
          <mxGeometry relative="1" as="geometry" />
        </mxCell>
        <mxCell id="BGMLpLw45mADriLmOVhz-51" value="T" style="edgeLabel;html=1;align=center;verticalAlign=middle;resizable=0;points=[];" vertex="1" connectable="0" parent="BGMLpLw45mADriLmOVhz-40">
          <mxGeometry x="-0.3485" y="1" relative="1" as="geometry">
            <mxPoint x="-5" y="-11" as="offset" />
          </mxGeometry>
        </mxCell>
        <mxCell id="BGMLpLw45mADriLmOVhz-42" style="edgeStyle=orthogonalEdgeStyle;rounded=0;orthogonalLoop=1;jettySize=auto;html=1;exitX=0.5;exitY=1;exitDx=0;exitDy=0;entryX=0.5;entryY=0;entryDx=0;entryDy=0;" edge="1" parent="BGMLpLw45mADriLmOVhz-52" source="BGMLpLw45mADriLmOVhz-37" target="BGMLpLw45mADriLmOVhz-1">
          <mxGeometry relative="1" as="geometry" />
        </mxCell>
        <mxCell id="BGMLpLw45mADriLmOVhz-50" value="F" style="edgeLabel;html=1;align=center;verticalAlign=middle;resizable=0;points=[];" vertex="1" connectable="0" parent="BGMLpLw45mADriLmOVhz-42">
          <mxGeometry x="-0.0794" y="1" relative="1" as="geometry">
            <mxPoint x="9" y="-4" as="offset" />
          </mxGeometry>
        </mxCell>
        <mxCell id="BGMLpLw45mADriLmOVhz-37" value="N = 0" style="rhombus;whiteSpace=wrap;html=1;" vertex="1" parent="BGMLpLw45mADriLmOVhz-52">
          <mxGeometry x="88.75" y="90" width="63" height="60" as="geometry" />
        </mxCell>
        <mxCell id="BGMLpLw45mADriLmOVhz-46" style="edgeStyle=orthogonalEdgeStyle;rounded=0;orthogonalLoop=1;jettySize=auto;html=1;entryX=0.5;entryY=0;entryDx=0;entryDy=0;" edge="1" parent="BGMLpLw45mADriLmOVhz-52" source="BGMLpLw45mADriLmOVhz-38" target="BGMLpLw45mADriLmOVhz-13">
          <mxGeometry relative="1" as="geometry" />
        </mxCell>
        <mxCell id="BGMLpLw45mADriLmOVhz-38" value="output(&quot;Array Kosong&quot;)" style="shape=parallelogram;perimeter=parallelogramPerimeter;whiteSpace=wrap;html=1;fixedSize=1;" vertex="1" parent="BGMLpLw45mADriLmOVhz-52">
          <mxGeometry x="180" y="100" width="155" height="40" as="geometry" />
        </mxCell>
        <mxCell id="BGMLpLw45mADriLmOVhz-45" style="edgeStyle=orthogonalEdgeStyle;rounded=0;orthogonalLoop=1;jettySize=auto;html=1;exitX=0;exitY=0.5;exitDx=0;exitDy=0;entryX=0.5;entryY=1;entryDx=0;entryDy=0;" edge="1" parent="BGMLpLw45mADriLmOVhz-52" source="BGMLpLw45mADriLmOVhz-43" target="BGMLpLw45mADriLmOVhz-3">
          <mxGeometry relative="1" as="geometry">
            <Array as="points">
              <mxPoint x="44" y="345" />
            </Array>
          </mxGeometry>
        </mxCell>
        <mxCell id="BGMLpLw45mADriLmOVhz-43" value="output(i, T[i])" style="shape=parallelogram;perimeter=parallelogramPerimeter;whiteSpace=wrap;html=1;fixedSize=1;" vertex="1" parent="BGMLpLw45mADriLmOVhz-52">
          <mxGeometry x="60.25" y="330" width="120" height="30" as="geometry" />
        </mxCell>
        <mxCell id="BGMLpLw45mADriLmOVhz-25" value="" style="rounded=0;whiteSpace=wrap;html=1;fillColor=#008a00;fontColor=#ffffff;strokeColor=#005700;opacity=30;" vertex="1" parent="BGMLpLw45mADriLmOVhz-52">
          <mxGeometry x="10" y="167" width="184.75" height="203" as="geometry" />
        </mxCell>
        <mxCell id="BGMLpLw45mADriLmOVhz-54" style="edgeStyle=orthogonalEdgeStyle;rounded=0;orthogonalLoop=1;jettySize=auto;html=1;entryX=0.5;entryY=0;entryDx=0;entryDy=0;" edge="1" parent="1" source="BGMLpLw45mADriLmOVhz-28" target="IkpXYTgl3K8qra5wuV8V-7">
          <mxGeometry relative="1" as="geometry" />
        </mxCell>
        <mxCell id="BGMLpLw45mADriLmOVhz-55" value="" style="group" vertex="1" connectable="0" parent="1">
          <mxGeometry x="206.73000000000002" y="230" width="186.53999999999996" height="40" as="geometry" />
        </mxCell>
        <mxCell id="BGMLpLw45mADriLmOVhz-28" value="&lt;font style=&quot;font-size: 10px;&quot;&gt;printArray(T,&amp;nbsp; &amp;nbsp; &amp;nbsp; &amp;nbsp; &amp;nbsp; &amp;nbsp; &amp;nbsp; &amp;nbsp; &amp;nbsp; &amp;nbsp; &amp;nbsp; &amp;nbsp; &amp;nbsp; &amp;nbsp; &amp;nbsp;)&lt;/font&gt;" style="shape=process;whiteSpace=wrap;html=1;backgroundOutline=1;" vertex="1" parent="BGMLpLw45mADriLmOVhz-55">
          <mxGeometry width="186.54" height="40" as="geometry" />
        </mxCell>
        <mxCell id="BGMLpLw45mADriLmOVhz-29" value="&lt;font style=&quot;font-size: 10px;&quot;&gt;len(T)&lt;/font&gt;" style="shape=process;whiteSpace=wrap;html=1;backgroundOutline=1;" vertex="1" parent="BGMLpLw45mADriLmOVhz-55">
          <mxGeometry x="83.32469316888046" y="11" width="72.95825996204933" height="18" as="geometry" />
        </mxCell>
      </root>
    </mxGraphModel>
  </diagram>
</mxfile>
